<?xml version="1.0" standalone="no"?>
<!DOCTYPE svg PUBLIC "-//W3C//DTD SVG 20010904//EN"
 "http://www.w3.org/TR/2001/REC-SVG-20010904/DTD/svg10.dtd">
<svg version="1.0" xmlns="http://www.w3.org/2000/svg"
 width="537.000000pt" height="287.000000pt" viewBox="0 0 537.000000 287.000000"
 preserveAspectRatio="xMidYMid meet">

<g transform="translate(0.000000,287.000000) scale(0.100000,-0.100000)"
fill="#000000" stroke="none">
<path d="M0 1435 l0 -1435 2685 0 2685 0 0 1435 0 1435 -2685 0 -2685 0 0
-1435z m2273 1288 l86 -98 1 -1178 0 -1178 -82 -92 c-45 -51 -87 -95 -92 -99
-17 -12 -1653 -9 -1764 2 -255 28 -300 77 -323 356 -16 200 -23 1458 -10 1778
13 304 23 401 50 460 40 92 103 120 311 139 19 2 418 5 886 5 l851 2 86 -97z
m2758 -136 c22 -32 39 -60 39 -63 0 -2 20 -33 45 -70 25 -36 45 -70 45 -75 0
-5 5 -15 10 -22 42 -49 51 -64 57 -86 3 -14 16 -39 28 -56 12 -16 29 -43 37
-60 8 -16 23 -43 32 -60 l16 -30 -68 -6 c-37 -4 -226 -7 -419 -8 -290 -1 -353
1 -353 12 0 8 14 33 30 56 17 23 38 57 47 76 9 19 20 35 25 35 4 0 8 7 8 15 0
15 24 55 89 145 21 30 45 71 53 90 8 19 22 41 31 49 10 7 17 22 17 33 0 11 25
58 55 104 31 46 58 90 61 99 4 9 18 -9 41 -53 20 -37 53 -93 74 -125z m-2260
156 c5 -15 9 -36 7 -47 -3 -19 -11 -21 -75 -24 -66 -3 -74 -5 -97 -33 -39 -45
-34 -81 14 -121 82 -68 226 -214 238 -241 29 -67 5 -124 -83 -192 l-60 -47
-118 5 c-149 7 -171 22 -131 98 l15 30 35 -20 c24 -15 53 -21 92 -21 47 0 60
4 84 27 40 39 40 102 -2 146 -16 18 -30 35 -30 40 0 4 -6 7 -14 7 -8 0 -16 7
-19 15 -4 8 -21 21 -39 28 -37 16 -76 62 -109 130 -20 40 -21 51 -11 84 18 60
46 97 98 131 42 29 55 32 121 32 71 0 74 -1 84 -27z m632 11 c26 -9 47 -20 47
-25 0 -5 7 -9 15 -9 8 0 22 -11 31 -25 9 -14 21 -25 28 -25 16 -1 75 -84 92
-132 17 -50 18 -208 1 -263 -23 -74 -91 -156 -171 -205 -55 -33 -176 -35 -238
-3 -24 11 -59 29 -78 38 -45 22 -70 60 -100 153 -20 63 -22 87 -18 180 8 166
44 222 192 301 68 36 125 40 199 15z m722 -14 c12 -22 13 -35 5 -50 -12 -22
-67 -40 -122 -40 -20 0 -49 -5 -63 -12 -23 -10 -25 -16 -25 -80 l0 -68 84 0
c109 0 116 -3 116 -50 0 -47 -7 -50 -116 -50 l-84 0 0 -170 0 -170 -75 0 -75
0 0 360 0 360 170 0 169 0 16 -30z m285 -341 l0 -371 -37 6 c-21 4 -50 9 -64
12 l-26 5 -6 136 c-9 170 -9 530 -1 561 6 20 12 22 70 22 l64 0 0 -371z
m-1526 -660 c30 -35 34 -74 9 -87 -10 -5 -54 -12 -99 -15 -92 -6 -140 -26
-156 -65 -5 -15 -15 -36 -21 -47 -6 -11 -13 -56 -15 -101 -4 -67 0 -92 19
-145 38 -105 58 -118 234 -146 49 -8 50 -9 50 -43 0 -33 -2 -35 -35 -38 -55
-6 -229 19 -238 33 -4 7 -21 19 -37 28 -36 18 -73 64 -94 115 -21 55 -20 294
2 343 25 56 95 121 167 156 84 41 87 41 142 42 40 1 50 -3 72 -30z m292 14 c4
-10 10 -144 12 -298 2 -154 8 -285 13 -291 5 -6 43 -14 84 -16 81 -5 125 -26
125 -59 0 -37 -54 -49 -216 -49 l-146 0 4 348 c3 191 8 355 12 365 6 13 20 17
56 17 36 0 50 -4 56 -17z m708 7 c22 -8 26 -16 26 -49 0 -50 -13 -58 -106 -67
-98 -10 -111 -16 -125 -64 -11 -37 -11 -43 8 -61 24 -24 79 -38 151 -39 61 0
71 -13 47 -59 -12 -25 -22 -31 -48 -31 -37 -1 -114 -20 -142 -37 -15 -9 -20
-25 -23 -81 -5 -84 -5 -84 113 -102 116 -19 125 -23 125 -64 0 -33 -2 -35 -52
-47 -70 -18 -214 -18 -255 0 -25 10 -34 22 -40 50 -10 47 -10 552 0 614 l8 47
144 0 c79 0 155 -4 169 -10z m469 -22 c13 -18 34 -60 46 -93 13 -33 29 -75 37
-93 8 -18 14 -44 14 -57 0 -25 11 -80 35 -170 19 -73 57 -227 62 -251 4 -18
-1 -22 -33 -27 -44 -7 -80 11 -94 48 -15 40 -107 56 -196 34 -37 -10 -44 -15
-44 -35 0 -17 -8 -28 -26 -34 -27 -11 -97 -14 -106 -5 -3 3 14 63 37 133 23
70 48 152 54 182 7 30 19 74 27 98 8 23 14 58 14 77 0 19 6 52 14 72 8 21 22
64 31 96 l16 57 44 0 c38 0 47 -4 68 -32z m465 -13 c23 -25 42 -51 42 -59 0
-7 9 -21 20 -31 11 -10 20 -24 20 -32 0 -12 26 -60 40 -73 3 -3 14 -24 25 -47
11 -24 23 -43 28 -43 4 0 7 -11 7 -24 0 -13 7 -29 16 -37 27 -22 34 8 34 153
0 75 5 159 12 187 l11 51 43 0 c66 0 70 -18 66 -355 -1 -154 -6 -296 -10 -315
-11 -49 -50 -68 -92 -43 -17 9 -30 24 -30 32 0 8 -6 22 -14 30 -14 16 -26 38
-126 226 -26 49 -52 91 -57 92 -15 5 -23 -83 -23 -249 l0 -148 -66 0 -67 0 7
333 c3 182 9 347 12 365 10 49 49 45 102 -13z m-1942 -926 c8 -6 14 -26 14
-45 0 -40 -21 -54 -94 -63 l-51 -6 -6 -235 c-4 -129 -12 -263 -19 -296 -11
-57 -15 -62 -42 -68 -17 -3 -42 -6 -55 -6 l-25 0 4 295 c3 256 1 296 -12 299
-8 2 -31 7 -51 10 -39 7 -75 32 -80 56 -6 27 11 68 29 74 32 10 374 -3 388
-15z m504 -28 c0 -72 -13 -81 -121 -81 l-89 0 0 -80 0 -80 93 0 c101 0 117 -7
117 -51 0 -43 -32 -59 -117 -59 -39 0 -74 -4 -77 -8 -3 -5 -8 -50 -12 -100
l-7 -92 69 0 c38 0 80 -6 94 -13 32 -16 45 -54 31 -89 l-11 -28 -144 0 c-128
0 -146 2 -154 18 -12 21 -17 229 -14 505 l2 207 170 0 170 0 0 -49z m466 27
c7 -7 20 -44 30 -83 14 -60 58 -220 130 -470 9 -33 19 -81 21 -107 l5 -48 -57
0 -56 0 -20 45 -20 45 -82 0 c-45 0 -88 -4 -95 -9 -7 -4 -21 -23 -30 -42 -16
-33 -20 -34 -79 -37 -71 -3 -73 0 -49 65 31 84 75 242 85 308 6 39 27 117 46
174 19 57 35 117 35 133 0 20 7 31 23 38 28 13 96 5 113 -12z m941 14 c23 -15
34 -65 73 -337 7 -44 18 -105 26 -135 8 -30 14 -86 14 -125 0 -38 4 -85 10
-104 l9 -34 -56 6 c-31 3 -60 10 -65 15 -5 5 -18 58 -30 118 -27 146 -31 158
-50 162 -22 4 -43 -40 -88 -180 -32 -97 -37 -107 -62 -112 -45 -9 -73 8 -85
51 -6 21 -17 58 -24 83 -7 25 -26 71 -42 102 -50 98 -73 74 -92 -92 -3 -30 -8
-74 -11 -96 l-5 -42 -52 -6 c-29 -4 -61 -4 -70 0 -22 8 -22 53 -1 170 9 49 32
186 53 305 20 119 42 224 50 233 8 10 28 16 52 16 36 0 40 -3 58 -42 29 -66
68 -170 74 -198 5 -25 58 -181 64 -189 11 -15 63 99 63 138 0 39 77 267 97
287 15 15 70 19 90 6z"/>
<path d="M1065 2418 c-39 -21 -107 -94 -130 -138 -33 -65 -38 -115 -20 -185
23 -85 69 -162 194 -323 128 -166 150 -199 172 -267 13 -42 20 -51 42 -53 25
-3 27 0 27 31 0 53 -55 150 -171 303 -131 173 -161 221 -189 303 -32 97 -15
168 54 228 48 43 96 56 180 51 81 -5 134 -29 183 -80 64 -67 95 -172 242 -814
81 -355 94 -387 171 -413 l45 -15 -42 -6 c-65 -9 -73 -21 -73 -108 l0 -75 163
6 c89 4 172 10 185 13 25 7 29 36 7 54 -10 8 -15 31 -15 66 0 49 -3 55 -29 68
-16 9 -76 27 -134 42 -87 21 -106 30 -115 50 -22 46 -92 324 -157 615 -93 424
-106 456 -214 564 -89 89 -105 95 -241 95 -64 0 -124 -5 -135 -12z m897 -1473
c32 -13 8 -25 -47 -25 -57 0 -105 13 -105 29 0 19 101 16 152 -4z"/>
<path d="M528 1536 c-98 -28 -183 -97 -216 -175 -33 -79 -43 -142 -49 -318
l-6 -183 74 0 c71 0 144 12 157 24 14 14 -21 29 -83 35 -41 5 -70 13 -76 22
-12 20 -11 218 2 281 30 138 109 217 247 247 87 18 287 14 374 -8 186 -48 283
-131 378 -323 62 -127 73 -175 43 -199 -12 -10 -60 -15 -187 -17 -204 -3 -218
1 -227 69 -9 59 -28 95 -76 142 -49 50 -102 77 -151 77 -39 0 -69 -20 -58 -38
3 -5 29 -14 59 -21 106 -23 167 -105 167 -225 l0 -68 248 4 c246 4 282 9 304
42 13 19 9 67 -12 146 -24 90 -25 124 -5 140 20 17 20 92 -1 135 -17 37 -42
49 -129 65 -35 5 -103 31 -162 60 -146 72 -226 91 -413 96 -112 2 -168 0 -202
-10z m852 -240 c22 -24 22 -56 0 -56 -16 0 -60 47 -60 65 0 23 34 18 60 -9z"/>
<path d="M625 1106 c-69 -31 -103 -101 -92 -193 9 -82 70 -133 160 -133 76 0
130 38 162 112 21 53 19 88 -11 134 -50 77 -148 113 -219 80z m144 -77 c28
-26 27 -42 -1 -33 -35 10 -78 44 -78 59 0 18 48 2 79 -26z m-146 -54 c-5 -54
-3 -69 12 -85 10 -11 28 -20 39 -20 23 0 78 30 115 64 l23 21 -7 -25 c-27 -91
-146 -119 -197 -47 -29 41 -31 106 -4 136 11 12 20 21 22 21 2 0 1 -29 -3 -65z"/>
<path d="M4895 2626 c-59 -80 -95 -140 -95 -160 0 -10 -11 -34 -25 -52 -14
-18 -25 -36 -25 -40 0 -4 -17 -30 -38 -58 -21 -28 -60 -91 -86 -140 l-48 -89
331 5 c182 3 334 7 336 10 3 3 1 17 -6 30 -10 24 -16 25 -122 31 -62 4 -164 7
-227 7 -63 0 -121 4 -128 9 -11 6 -9 18 11 57 14 27 34 65 44 85 10 21 38 66
62 102 l44 65 20 -36 c10 -21 26 -49 34 -64 8 -16 18 -28 23 -28 8 0 19 -24
20 -45 0 -5 -36 -15 -81 -21 -67 -10 -86 -17 -100 -35 -16 -21 -16 -25 -3 -32
17 -10 329 -6 338 4 7 7 -20 76 -37 95 -28 31 -36 43 -67 100 -18 32 -46 78
-61 102 -16 24 -29 49 -29 56 0 8 -6 16 -13 19 -8 3 -20 18 -28 34 l-14 30
-30 -41z"/>
<path d="M3251 2663 c-19 -8 -46 -36 -54 -56 -3 -9 -10 -17 -15 -17 -5 0 -20
-32 -32 -70 -18 -57 -22 -85 -17 -148 5 -76 26 -139 54 -155 7 -4 13 -13 13
-20 1 -18 47 -48 85 -54 44 -7 134 28 165 65 26 29 49 122 49 197 0 67 -23
170 -42 189 -8 9 -17 19 -19 24 -1 4 -19 18 -39 30 -35 21 -112 29 -148 15z"/>
<path d="M4276 1418 c-8 -18 -17 -58 -21 -89 -7 -55 -6 -57 19 -63 36 -9 76 3
76 23 -1 34 -38 155 -49 159 -6 2 -18 -11 -25 -30z"/>
<path d="M3765 463 c-4 -15 -13 -50 -21 -76 -12 -38 -12 -52 -3 -63 14 -17 88
-19 94 -1 7 18 -38 160 -52 164 -7 3 -15 -8 -18 -24z"/>
</g>
</svg>
