<?xml version="1.0" standalone="no"?>
<!DOCTYPE svg PUBLIC "-//W3C//DTD SVG 20010904//EN"
 "http://www.w3.org/TR/2001/REC-SVG-20010904/DTD/svg10.dtd">
<svg version="1.0" xmlns="http://www.w3.org/2000/svg"
 width="306.000000pt" height="294.000000pt" viewBox="0 0 306.000000 294.000000"
 preserveAspectRatio="xMidYMid meet">

<g transform="translate(0.000000,294.000000) scale(0.100000,-0.100000)"
fill="#000000" stroke="none">
<path d="M2566 2795 c-3 -9 -30 -53 -61 -99 -30 -46 -55 -93 -55 -104 0 -11
-7 -26 -17 -33 -9 -8 -23 -30 -31 -49 -8 -19 -32 -60 -53 -90 -65 -90 -89
-130 -89 -145 0 -8 -4 -15 -8 -15 -5 0 -16 -16 -25 -35 -9 -19 -30 -53 -47
-76 -16 -23 -30 -48 -30 -56 0 -11 63 -13 353 -12 193 1 382 4 419 8 l68 6
-16 30 c-9 17 -24 44 -32 60 -8 17 -25 44 -37 60 -12 17 -25 42 -28 56 -6 22
-15 37 -57 86 -5 7 -10 17 -10 22 0 5 -20 39 -45 75 -25 37 -45 68 -45 70 0 3
-17 31 -39 63 -21 32 -54 88 -74 125 -23 44 -37 62 -41 53z m51 -162 c7 -3 13
-11 13 -19 0 -7 13 -32 29 -56 15 -24 43 -70 61 -102 31 -57 39 -69 67 -100
17 -19 44 -88 37 -95 -9 -10 -321 -14 -338 -4 -13 7 -13 11 3 32 14 18 33 25
100 35 45 6 81 16 81 21 -1 21 -12 45 -20 45 -5 0 -15 12 -23 28 -8 15 -24 43
-34 64 l-20 36 -44 -65 c-24 -36 -52 -81 -62 -102 -10 -20 -30 -58 -44 -85
-20 -39 -22 -51 -11 -57 7 -5 65 -9 128 -9 63 0 165 -3 227 -7 106 -6 112 -7
122 -31 7 -13 9 -27 6 -30 -2 -3 -154 -7 -336 -10 l-331 -5 48 89 c26 49 65
112 86 140 21 28 38 54 38 58 0 4 11 22 25 40 14 18 25 42 25 52 0 20 36 80
95 160 l30 41 14 -30 c8 -16 20 -31 28 -34z"/>
<path d="M216 2768 c-52 -34 -80 -71 -98 -131 -10 -33 -9 -44 11 -84 33 -68
72 -114 109 -130 18 -7 35 -20 39 -28 3 -8 11 -15 19 -15 8 0 14 -3 14 -7 0
-5 14 -22 30 -40 42 -44 42 -107 2 -146 -24 -23 -37 -27 -84 -27 -39 0 -68 6
-92 21 l-35 20 -15 -30 c-40 -76 -18 -91 131 -98 l118 -5 60 47 c88 68 112
125 83 192 -12 27 -156 173 -238 241 -48 40 -53 76 -14 121 23 28 31 30 97 33
64 3 72 5 75 24 2 11 -2 32 -7 47 -10 26 -13 27 -84 27 -66 0 -79 -3 -121 -32z"/>
<path d="M854 2769 c-148 -79 -184 -135 -192 -301 -4 -93 -2 -117 18 -180 30
-93 55 -131 100 -153 19 -9 54 -27 78 -38 62 -32 183 -30 238 3 80 49 148 131
171 205 17 55 16 213 -1 263 -17 48 -76 131 -92 132 -7 0 -19 11 -28 25 -9 14
-23 25 -31 25 -8 0 -15 4 -15 9 0 15 -90 41 -140 41 -34 0 -64 -9 -106 -31z
m195 -91 c20 -12 38 -26 39 -30 2 -5 11 -15 19 -24 19 -19 42 -122 42 -189 0
-75 -23 -168 -49 -197 -31 -37 -121 -72 -165 -65 -38 6 -84 36 -85 54 0 7 -6
16 -13 20 -28 16 -49 79 -54 155 -5 63 -1 91 17 148 12 38 27 70 32 70 5 0 12
8 15 17 8 20 35 48 54 56 36 14 113 6 148 -15z"/>
<path d="M1420 2440 l0 -360 75 0 75 0 0 170 0 170 84 0 c109 0 116 3 116 50
0 47 -7 50 -116 50 l-84 0 0 68 c0 64 2 70 25 80 14 7 43 12 63 12 55 0 110
18 122 40 8 15 7 28 -5 50 l-16 30 -169 0 -170 0 0 -360z"/>
<path d="M1926 2778 c-8 -31 -8 -391 1 -561 l6 -136 26 -5 c14 -3 43 -8 64
-12 l37 -6 0 371 0 371 -64 0 c-58 0 -64 -2 -70 -22z"/>
<path d="M400 1793 c-108 -37 -215 -120 -247 -192 -22 -49 -23 -288 -2 -343
21 -51 58 -97 94 -115 16 -9 33 -21 37 -28 9 -14 183 -39 238 -33 33 3 35 5
35 38 0 34 -1 35 -50 43 -176 28 -196 41 -234 146 -19 53 -23 78 -19 145 2 45
9 90 15 101 6 11 16 32 21 47 16 39 64 59 156 65 45 3 89 10 99 15 25 13 21
52 -9 87 -22 27 -32 31 -72 30 -26 0 -54 -3 -62 -6z"/>
<path d="M714 1783 c-4 -10 -9 -174 -12 -365 l-4 -348 146 0 c162 0 216 12
216 49 0 33 -44 54 -125 59 -41 2 -79 10 -84 16 -5 6 -11 137 -13 291 -2 154
-8 288 -12 298 -6 13 -20 17 -56 17 -36 0 -50 -4 -56 -17z"/>
<path d="M1213 1753 c-10 -62 -10 -567 0 -614 6 -28 15 -40 40 -50 41 -18 185
-18 255 0 50 12 52 14 52 47 0 41 -9 45 -125 64 -118 18 -118 18 -113 102 3
56 8 72 23 81 28 17 105 36 142 37 26 0 36 6 48 31 24 46 14 59 -47 59 -72 1
-127 15 -151 39 -19 18 -19 24 -8 61 14 48 27 54 125 64 93 9 106 17 106 67 0
54 -18 59 -195 59 l-144 0 -8 -47z"/>
<path d="M1875 1743 c-9 -32 -23 -75 -31 -96 -8 -20 -14 -53 -14 -72 0 -19 -6
-54 -14 -77 -8 -24 -20 -68 -27 -98 -6 -30 -31 -112 -54 -182 -23 -70 -40
-130 -37 -133 9 -9 79 -6 106 5 18 6 26 17 26 34 0 20 7 25 44 35 89 22 181 6
196 -34 14 -37 50 -55 94 -48 32 5 37 9 33 27 -5 24 -43 178 -62 251 -24 90
-35 145 -35 170 0 13 -6 39 -14 57 -8 18 -24 60 -37 93 -12 33 -33 75 -46 93
-21 28 -30 32 -68 32 l-44 0 -16 -57z m106 -338 c10 -39 19 -77 19 -86 0 -20
-40 -32 -76 -23 -25 6 -26 8 -19 63 8 67 30 124 46 119 7 -2 20 -35 30 -73z"/>
<path d="M2366 1768 c-3 -18 -9 -183 -12 -365 l-7 -333 67 0 66 0 0 148 c0
166 8 254 23 249 5 -1 31 -43 57 -92 100 -188 112 -210 126 -226 8 -8 14 -22
14 -30 0 -8 13 -23 30 -32 42 -25 81 -6 92 43 4 19 9 161 10 315 4 337 0 355
-66 355 l-43 0 -11 -51 c-7 -28 -12 -112 -12 -187 0 -145 -7 -175 -34 -153 -9
8 -16 24 -16 37 0 13 -3 24 -7 24 -5 0 -17 19 -28 43 -11 23 -22 44 -25 47
-14 13 -40 61 -40 73 0 8 -9 22 -20 32 -11 10 -20 24 -20 31 0 8 -19 34 -42
59 -53 58 -92 62 -102 13z"/>
<path d="M138 844 c-18 -6 -35 -47 -29 -74 5 -24 41 -49 80 -56 20 -3 43 -8
51 -10 13 -3 15 -43 12 -299 l-4 -295 25 0 c13 0 38 3 55 6 27 6 31 11 42 68
7 33 15 167 19 296 l6 235 51 6 c73 9 94 23 94 63 0 19 -6 39 -14 45 -14 12
-356 25 -388 15z"/>
<path d="M688 643 c-3 -276 2 -484 14 -505 8 -16 26 -18 154 -18 l144 0 11 28
c14 35 1 73 -31 89 -14 7 -56 13 -94 13 l-69 0 7 92 c4 50 9 95 12 100 3 4 38
8 77 8 85 0 117 16 117 59 0 44 -16 51 -117 51 l-93 0 0 80 0 80 89 0 c108 0
121 9 121 81 l0 49 -170 0 -170 0 -2 -207z"/>
<path d="M1383 840 c-16 -7 -23 -18 -23 -38 0 -16 -16 -76 -35 -133 -19 -57
-40 -135 -46 -174 -10 -66 -54 -224 -85 -308 -24 -65 -22 -68 49 -65 59 3 63
4 79 37 9 19 23 38 30 42 7 5 50 9 95 9 l82 0 20 -45 20 -45 56 0 57 0 -5 48
c-2 26 -12 74 -21 107 -72 250 -116 410 -130 470 -10 39 -23 76 -30 83 -17 17
-85 25 -113 12z m84 -401 c13 -41 21 -80 18 -86 -6 -18 -80 -16 -94 1 -9 11
-9 25 3 63 8 26 17 61 21 76 9 45 28 26 52 -54z"/>
<path d="M2347 836 c-20 -20 -97 -248 -97 -287 0 -39 -52 -153 -63 -138 -6 8
-59 164 -64 189 -6 28 -45 132 -74 198 -18 39 -22 42 -58 42 -24 0 -44 -6 -52
-16 -8 -9 -30 -114 -50 -233 -21 -119 -44 -256 -53 -305 -21 -117 -21 -162 1
-170 9 -4 41 -4 70 0 l52 6 5 42 c3 22 8 66 11 96 19 166 42 190 92 92 16 -31
35 -77 42 -102 7 -25 18 -62 24 -83 12 -43 40 -60 85 -51 25 5 30 15 62 112
45 140 66 184 88 180 19 -4 23 -16 50 -162 12 -60 25 -113 30 -118 5 -5 34
-12 65 -15 l56 -6 -9 34 c-6 19 -10 66 -10 104 0 39 -6 95 -14 125 -8 30 -19
91 -26 135 -39 272 -50 322 -73 337 -20 13 -75 9 -90 -6z"/>
</g>
</svg>
